<?xml version="1.0" encoding="utf-8"?>
<!-- Generator: Adobe Illustrator 23.0.1, SVG Export Plug-In . SVG Version: 6.00 Build 0)  -->
<svg version="1.1" id="Ebene_1" xmlns="http://www.w3.org/2000/svg" xmlns:xlink="http://www.w3.org/1999/xlink" x="0px" y="0px"
	 viewBox="0 0 512 512" style="enable-background:new 0 0 512 512;" xml:space="preserve">
<style type="text/css">
	.st0{fill:#FFFFFF;}
	.st1{fill:#F2A52A;}
</style>
<g>
	<g id="surface1_1_">
		<path class="st0" d="M256,320c-3.369,0-6.533-1.303-8.912-3.67l-51.399-51.415c-2.384-2.384-3.694-5.561-3.69-8.944
			c0.005-3.375,1.318-6.538,3.697-8.906l51.383-51.399c2.363-2.364,5.531-3.665,8.919-3.665c3.388,0,6.556,1.302,8.919,3.665
			l51.392,51.407c2.383,2.384,3.693,5.56,3.689,8.944c-0.004,3.375-1.318,6.538-3.697,8.907l-51.383,51.399
			C262.533,318.697,259.368,320,256,320z"/>
		<path class="st0" d="M198.751,250.134c-3.229,3.213-3.229,8.49,0,11.72l51.391,51.407c3.229,3.213,8.488,3.213,11.716,0
			l51.391-51.407c3.229-3.213,3.229-8.49,0-11.72l-51.391-51.407c-1.614-1.615-3.711-2.397-5.858-2.397s-4.244,0.782-5.858,2.397
			L198.751,250.134z"/>
	</g>
	<g id="surface1_2_">
		<path class="st1" d="M198.751,250.134c-3.229,3.213-3.229,8.49,0,11.72l51.391,51.407c3.229,3.213,8.488,3.213,11.716,0
			l51.391-51.407c3.229-3.213,3.229-8.49,0-11.72l-51.391-51.407c-1.614-1.615-3.711-2.397-5.858-2.397s-4.244,0.782-5.858,2.397
			L198.751,250.134z M256,204.986l50.992,51.007L256,307.001l-50.992-51.007l35.282-35.292l7.456,7.458
			c-0.2,0.716-0.266,1.482-0.266,2.264c0,3.146,1.714,5.843,4.26,7.325v36.491c-2.546,1.482-4.26,4.178-4.26,7.325
			c0,4.711,3.811,8.523,8.521,8.523c4.71,0,8.521-3.812,8.521-8.523c0-3.146-1.714-5.843-4.26-7.325v-33.428l13.048,13.052
			c-0.183,0.683-0.266,1.398-0.266,2.131c0,4.711,3.811,8.523,8.521,8.523c4.71,0,8.521-3.812,8.521-8.523s-3.811-8.523-8.521-8.523
			c-0.732,0-1.448,0.083-2.13,0.266l-15.178-15.182c0.183-0.683,0.266-1.398,0.266-2.131c0-4.711-3.811-8.523-8.521-8.523
			c-0.782,0-1.548,0.067-2.263,0.266l-7.456-7.458L256,204.986z"/>
	</g>
</g>
</svg>
